<svg xmlns="http://www.w3.org/2000/svg" viewBox="0 0 286.09 62.14"><defs><style>.cls-1{fill:#ef5b34;}.cls-2{font-size:17.28px;}.cls-2,.cls-3{fill:#231f20;font-family:MontserratAlternates-Light, Montserrat Alternates;font-weight:300;}.cls-3{font-size:36.71px;}.cls-4{letter-spacing:-0.03em;}.cls-5{letter-spacing:0em;}</style></defs><title>logotype-orange</title><g id="Layer_2" data-name="Layer 2"><g id="Layer_1-2" data-name="Layer 1"><path class="cls-1" d="M81.55,37.35v6.71s0,0,0,0V53.3h3.66V43.85L82.6,39.23Z"/><path class="cls-1" d="M108.15,11.48a20.79,20.79,0,0,0-19,12.31L91.58,28a17.11,17.11,0,1,1,16.57,21.39,17.51,17.51,0,0,1-3.46-.35A17.16,17.16,0,0,1,94,41.92c-.92-1.34-1.58-2.86-2.39-4.27l-.49-.86c-.22-.4-.45-.8-.68-1.2l-3-5.28L87,29.45l-4.74-7.93h0L82,21.16h0a20.77,20.77,0,0,0-32.83-3V0H45.5V23.69h0l2.41,4.12a17.12,17.12,0,0,1,31-4.71l0,0,0,.06c.15.24.29.48.43.73l.1.18c.11.19.21.39.31.59l0,.05h0l.1.18L82,28.69l1.72,3.06,1.38,2.47.08.14v0l1.4,2.5,3.65,6a20.78,20.78,0,0,0,35,1.18v9h3.66s0-21.3,0-21.3A20.78,20.78,0,0,0,108.15,11.48Z"/><path class="cls-1" d="M44.58,31.77l-.78-1.38-.49-.86,0-.07h0l-.32-.54L38.81,22l-.24-.41a20.66,20.66,0,0,0-4.74-5.42l-.52-.4c-.16-.13-.33-.25-.5-.37l0,0L32.24,15c-.36-.24-.73-.47-1.1-.68h0c-.19-.11-.38-.22-.58-.32L30,13.69c-.4-.19-.8-.37-1.21-.54a20.37,20.37,0,0,0-2.27-.8,21.34,21.34,0,0,0-2.3-.51l-.63-.09c-.44-.06-.89-.11-1.35-.14l-.76,0H20.06l-.39,0-.49,0c-.44,0-.87.07-1.29.13l-.58.09a.58.58,0,0,0-.14,0l-.78.14-1.06.27-.54.15-.19.06-.56.18-1.1.41-.6.26a19.83,19.83,0,0,0-2,1l-.45.27a16.07,16.07,0,0,0-1.54,1l-.49.37-.48.39-.46.41-.45.42c-.16.14-.3.28-.45.43l-.43.45c-.11.13-.24.26-.36.39l-.08.1c-.13.14-.25.28-.37.43-.27.32-.52.65-.77,1l-.34.48h0a20.52,20.52,0,0,0-3,6.62A19.93,19.93,0,0,0,0,31.86c0,.13,0,.27,0,.4H0V61.64H3.67V44.13c.15.22.3.44.46.65h0l.6.76c.32.39.66.77,1,1.14l.35.35c.35.36.72.7,1.1,1l.38.32c.25.21.51.42.78.62l.4.29.41.29c.28.19.56.37.85.54s.86.5,1.32.73l.45.23.45.21.47.21.86.34c.25.1.5.18.76.26l.43.14.35.1.38.11.61.15.35.07a18.71,18.71,0,0,0,2.91.41l.88,0H21.4l.46,0,.49,0,.77-.07c.45,0,.9-.12,1.34-.2l.29,0,.49-.1.24,0c.46-.11.91-.23,1.36-.37l.61-.19.1,0a18.67,18.67,0,0,0,2.07-.84c.45-.21.89-.44,1.32-.68l.63-.37.63-.4c.2-.13.41-.27.6-.41h0c.2-.14.4-.28.59-.43l.57-.45a19.06,19.06,0,0,0,1.62-1.49,21,21,0,0,0,4.14-6l-2.37-4.26c-.06.23-.13.46-.19.68s-.13.41-.2.6a.56.56,0,0,1,0,.12,6.56,6.56,0,0,1-.23.62,5.3,5.3,0,0,1-.28.65,5.11,5.11,0,0,1-.29.63c-.1.21-.21.42-.32.62q-.33.62-.72,1.2a17.9,17.9,0,0,1-1.24,1.66s0,0,0,0c-.29.34-.59.67-.92,1-.15.16-.31.32-.47.47l0,0a5.72,5.72,0,0,1-.46.4.6.6,0,0,1-.08.08l-.43.35a1.09,1.09,0,0,1-.17.13c-.15.13-.31.24-.46.35h0c-.18.14-.37.27-.56.39s-.63.4-.95.59-.58.32-.87.46l-.44.22-.42.18-.18.08-.54.21-.22.08-.49.17c-.36.12-.73.23-1.09.32s-.52.13-.79.18h0c-.22,0-.43.09-.65.12l-.45.07-.32,0a2.2,2.2,0,0,1-.44.05,2.6,2.6,0,0,1-.4,0,2.56,2.56,0,0,1-.39,0l-.8,0A17,17,0,0,1,8.53,44.29c-.33-.34-.64-.69-.95-1A18.68,18.68,0,0,1,6,40.93c-.23-.41-.45-.83-.65-1.26-.11-.21-.21-.43-.3-.65a19.46,19.46,0,0,1-.71-2l-.18-.7a17.13,17.13,0,0,1-.46-3.94,16.8,16.8,0,0,1,.09-1.75h0a17.09,17.09,0,0,1,6.7-11.9h0c.41-.31.84-.6,1.27-.87l.67-.4c.45-.25.92-.48,1.38-.7a17.22,17.22,0,0,1,7-1.49h0l.75,0h.15c.26,0,.51,0,.76.06h.13l.67.08.26,0,.61.11c.13,0,.26,0,.38.09a11.13,11.13,0,0,1,1.17.3l.46.14c.37.13.74.26,1.1.41l.46.19c.29.13.58.26.86.42l.15.08a4.23,4.23,0,0,1,.42.22c.31.17.61.35.91.55.14.09.29.18.44.29s.47.34.7.52h0l.14.11a4.23,4.23,0,0,1,.41.33l.41.35a3.09,3.09,0,0,1,.38.35,2.67,2.67,0,0,1,.38.37,10.28,10.28,0,0,1,.72.77,8.57,8.57,0,0,1,.67.82c.33.42.63.85.92,1.3l0,.06a14.81,14.81,0,0,1,.87,1.56l.08.14,1.11,2,4.15,7.4h0l.61,1v.06l.83,1.49,2.59,4.25V53.05h3.67V40l-1-1.92Z"/><text class="cls-2" transform="translate(139.19 23.53)">Professional Host</text><text class="cls-3" transform="translate(137.19 54.13)">Allian<tspan class="cls-4" x="108.07" y="0">c</tspan><tspan class="cls-5" x="127.75" y="0">e</tspan></text></g></g></svg>