<svg xmlns="http://www.w3.org/2000/svg" viewBox="0 0 105.7 50.53"><defs><style>.cls-1{fill:#262729;}</style></defs><title>Asset 1</title><g id="Layer_2" data-name="Layer 2"><g id="Layer_1-2" data-name="Layer 1"><path class="cls-1" d="M66.85,30.62v5.5l0,0v7.6h3V36l-2.15-3.79Z"/><path class="cls-1" d="M88.66,9.41A17.06,17.06,0,0,0,73.1,19.5l2,3.45A14,14,0,1,1,88.66,40.48a14.33,14.33,0,0,1-2.84-.29,14,14,0,0,1-8.73-5.82c-.76-1.11-1.3-2.35-2-3.51-.14-.23-.27-.46-.4-.7s-.38-.65-.56-1L71.7,24.85l-.4-.71-3.89-6.5h0c-.06-.1-.13-.19-.19-.28h0a17,17,0,0,0-26.91-2.45V0h-3V19.42h0l2,3.38a14,14,0,0,1,25.4-3.87l0,0,0,.05c.12.19.23.39.35.6l.08.14c.09.16.17.32.25.49l0,0h0l.09.15,1.72,3.08L68.66,26l1.13,2,.06.12v0l1.15,2s3,4.91,3,4.91a17,17,0,0,0,28.68,1v7.38h3s0-17.46,0-17.46A17,17,0,0,0,88.66,9.41Z"/><path class="cls-1" d="M36.55,26l-.64-1.12-.41-.71,0-.06h0l-.26-.45L31.82,18l-.2-.34a16.88,16.88,0,0,0-3.89-4.44l-.42-.33-.41-.31h0l-.45-.31c-.29-.2-.6-.38-.9-.55h0L25,11.47l-.48-.24c-.33-.16-.65-.31-1-.45a16.75,16.75,0,0,0-3.74-1.07l-.52-.08c-.37-.05-.74-.09-1.11-.11-.2,0-.41,0-.62,0H16.13l-.41,0-1.06.11-.47.08-.11,0c-.22,0-.43.07-.64.12l-.87.21-.44.13-.16.05c-.16.05-.31.09-.46.15-.31.1-.6.21-.9.33l-.49.21a16.89,16.89,0,0,0-1.64.85L8.11,12a12.16,12.16,0,0,0-1.26.86l-.4.3-.4.32c-.12.12-.25.22-.38.34l-.37.34-.36.36-.35.36-.3.33-.07.08-.3.35q-.33.39-.63.81L3,16.85H3A17,17,0,0,0,.53,22.29,16.61,16.61,0,0,0,0,26.12v.33H0V50.53H3V36.18l.38.53h0c.17.22.33.43.5.63s.54.63.82.93l.29.29c.29.3.59.57.9.84l.31.26c.21.18.43.35.65.51l.33.24.33.23.69.45q.53.31,1.08.6l.37.19.38.17.38.17.71.28c.2.08.41.14.62.21l.35.11.29.09.31.09.5.12.29.06a17.05,17.05,0,0,0,2.38.34l.73,0h.95l.38,0,.4,0,.63-.06,1.1-.16.24,0,.4-.08.2,0c.37-.09.75-.19,1.11-.3l.5-.16.09,0a16.79,16.79,0,0,0,1.7-.69c.36-.17.72-.36,1.07-.56.18-.09.35-.2.52-.3l.51-.32.5-.35h0c.16-.12.32-.23.48-.36l.47-.37a16.88,16.88,0,0,0,1.33-1.21,17.33,17.33,0,0,0,3.39-5L30.62,30c0,.19-.1.38-.15.56s-.1.33-.16.49a.3.3,0,0,1,0,.1,3.52,3.52,0,0,1-.19.51,4.93,4.93,0,0,1-.22.53,4.9,4.9,0,0,1-.24.52c-.09.17-.17.34-.27.51-.18.33-.37.66-.58,1a13.39,13.39,0,0,1-1,1.36,0,0,0,0,0,0,0c-.24.28-.49.55-.76.82a4.68,4.68,0,0,1-.39.38l0,0c-.12.11-.25.23-.38.33s0,0-.06.06l-.35.28-.15.12-.37.28h0l-.47.32q-.37.26-.78.48l-.71.38-.36.18-.34.15-.15.06-.44.18-.19.06-.4.14c-.29.1-.59.18-.89.26s-.43.11-.65.15h0l-.53.1-.37,0-.26,0a2.2,2.2,0,0,1-.36,0,1.84,1.84,0,0,1-.33,0l-.32,0-.65,0A14,14,0,0,1,7,36.31c-.27-.28-.52-.56-.77-.86a14.64,14.64,0,0,1-1.32-1.9,10.09,10.09,0,0,1-.54-1A5.05,5.05,0,0,1,4.12,32a15,15,0,0,1-.59-1.67c0-.19-.1-.38-.14-.57a14.19,14.19,0,0,1-.31-4.67h0a14,14,0,0,1,5.49-9.76h0c.33-.25.68-.49,1-.71.18-.12.36-.22.55-.33.37-.21.75-.4,1.13-.57A14.06,14.06,0,0,1,17,12.49h0c.2,0,.41,0,.61,0h.13l.62.05h.11l.55.07.21,0,.5.08.31.08a9.63,9.63,0,0,1,1,.25l.38.11.9.33.37.16a6.7,6.7,0,0,1,.71.35l.13.06.34.18c.25.14.5.29.74.45A3.75,3.75,0,0,1,25,15c.2.13.39.28.58.43h0l.12.09.33.27c.12.09.22.18.33.28l.32.29a3,3,0,0,1,.31.31,7,7,0,0,1,.59.63,7,7,0,0,1,.55.67A12.72,12.72,0,0,1,28.87,19l0,.05c.25.41.49.84.71,1.28l.07.12.9,1.61L34,28.12h0l.5.84v0l.68,1.22,2.12,3.49v9.77h3V32.77c-.12-.24-.83-1.58-.83-1.58Z"/></g></g></svg>